<svg xmlns="http://www.w3.org/2000/svg" width="48" height="41"><g fill="#EDEDED"><path d="M43.85 12.67H33.16V4.11a4.1 4.1 0 00-4.1-4.05H4.1A4.1 4.1 0 000 4.11v14.84A4.1 4.1 0 004.1 23h2.43l3.06 4.05c.17.28.52.4.87.4s.63-.17.86-.4L14.38 23h.46v8.56a4.1 4.1 0 004.1 4.05h14.68l3.06 4.05c.17.29.51.4.86.4s.64-.17.87-.4l3.06-4.05h2.43a4.1 4.1 0 004.1-4.05V16.72a4.1 4.1 0 00-4.15-4.05zm-30.04 8.21c-.35 0-.64.17-.87.4L10.4 24.6l-2.54-3.3c-.17-.29-.52-.4-.86-.4H3.99c-1.1 0-1.96-.86-1.96-1.94V4.1c0-1.08.86-1.94 1.96-1.94h24.96c1.1 0 1.96.86 1.96 1.94v14.84c0 1.08-.87 1.94-1.96 1.94H13.8zm32.06 10.68c0 1.08-.86 1.93-1.96 1.93h-3c-.35 0-.64.17-.87.4L37.5 37.2l-2.54-3.3c-.18-.29-.52-.4-.87-.4H18.95c-1.1 0-1.96-.86-1.96-1.94V23h12.07c.8 0 1.56-.23 2.2-.63h8.08a1.03 1.03 0 100-2.05h-6.35c.17-.4.23-.86.23-1.37v-4.1H43.9c1.1 0 1.97.85 1.97 1.93v14.78zm-5.54-4.34c0 .57-.46 1.02-1.04 1.02H23.57a1.03 1.03 0 110-2.05H39.3a1.03 1.03 0 011.03 1.03z"/><path d="M10.4 10.47a.38.38 0 00-.2-.65l-1.31-.19a.17.17 0 01-.13-.09l-.58-1.17a.38.38 0 00-.35-.21.38.38 0 00-.34.21L6.9 9.54a.17.17 0 01-.13.1l-1.3.18a.38.38 0 00-.22.65l.95.91c.04.04.05.1.04.15l-.22 1.29c-.02.11.01.22.09.3a.4.4 0 00.47.1l1.16-.6a.18.18 0 01.16 0l1.17.6a.38.38 0 00.47-.1.37.37 0 00.09-.3l-.23-1.29a.17.17 0 01.05-.15l.95-.9zm8.15 0a.38.38 0 00-.22-.65l-1.3-.19a.17.17 0 01-.13-.09l-.58-1.17a.38.38 0 00-.35-.21.38.38 0 00-.34.21l-.58 1.17a.17.17 0 01-.13.1l-1.3.18a.38.38 0 00-.22.65l.94.91c.04.04.06.1.05.15l-.22 1.29c-.02.11.01.22.09.3a.4.4 0 00.47.1l1.17-.6a.18.18 0 01.15 0l1.17.6a.38.38 0 00.47-.1.37.37 0 00.09-.3l-.23-1.29a.17.17 0 01.05-.15l.95-.9zm8.06 0a.38.38 0 00-.21-.65l-1.3-.19a.17.17 0 01-.13-.09l-.59-1.17a.38.38 0 00-.34-.21.38.38 0 00-.35.21l-.58 1.17a.17.17 0 01-.13.1l-1.3.18a.38.38 0 00-.21.65l.94.91c.04.04.06.1.05.15l-.22 1.29c-.02.11 0 .22.08.3a.4.4 0 00.47.1l1.17-.6a.18.18 0 01.16 0l1.16.6a.38.38 0 00.48-.1.37.37 0 00.08-.3l-.22-1.29a.17.17 0 01.05-.15l.94-.9z"/></g></svg>