<?xml version="1.0" encoding="utf-8"?>
<!-- Generator: Adobe Illustrator 24.0.1, SVG Export Plug-In . SVG Version: 6.00 Build 0)  -->
<svg version="1.1" id="Layer_1" xmlns="http://www.w3.org/2000/svg" xmlns:xlink="http://www.w3.org/1999/xlink" x="0px" y="0px"
	 viewBox="0 0 309.2 326.1" style="enable-background:new 0 0 309.2 326.1;" xml:space="preserve">
<style type="text/css">
	.st0{fill:none;}
	.st1{fill:#FFFFFF;stroke:#000000;stroke-miterlimit:10;}
</style>
<title>opt5</title>
<path class="st0" d="M-132.6-14.3h592.1v480h-592.1V-14.3z M125.8,177.2c2.3,1.3,3.7,2.1,5,3c21.2,14.3,42.4,28.7,63.8,42.7
	c4.7,3.1,6.8,6.2,6.9,12.2c0.5,23.1,18,40.1,40.2,39.9c21.6-0.2,39.1-17.8,39.2-39.4c0.2-58.3,0.2-116.7,0-175
	c-0.1-22-17.9-39.7-39.8-39.6c-2.3,0-4.5,0.2-6.7,0.6c-19.4,3.3-32.9,19.7-33.1,40.7c-0.2,16.8,0,33.7,0,50.5v6
	c-1.8-1.1-2.8-1.6-3.8-2.2c-23-15.4-46.1-30.9-69-46.5c-1.4-1-2.2-3.4-2.6-5.2c-1.4-6.6-1.4-13.8-3.9-19.9
	c-7.1-17.7-25.9-27-44.4-23.2C59.5,25.6,46.1,42.1,46,61.4c-0.1,26.5,0,53,0,79.5c0,31.2-0.1,62.4,0.1,93.5
	c0.2,26.7,24.1,45.6,49.4,39.4c17.8-4.4,30.1-20.4,30.2-40.1C125.9,215.1,125.8,196.7,125.8,177.2z"/>
<path class="st1" d="M125.8,177.2c0,19.5,0.1,38,0,56.5c-0.2,19.7-12.4,35.7-30.2,40.1c-25.4,6.2-49.2-12.6-49.4-39.4
	c-0.2-31.2-0.1-62.4-0.1-93.5c0-26.5-0.1-53,0-79.5C46.2,42,59.5,25.5,77.6,21.7c18.6-3.9,37.3,5.5,44.4,23.2
	c2.5,6.1,2.5,13.3,3.9,19.9c0.4,1.9,1.2,4.3,2.6,5.2c22.9,15.6,46,31,69,46.5c0.9,0.6,1.9,1.1,3.8,2.2v-6c0-16.8-0.1-33.7,0-50.5
	c0.2-20.9,13.8-37.4,33.1-40.7c21.6-3.8,42.1,10.6,45.9,32.2c0.4,2.2,0.6,4.5,0.6,6.7c0.3,58.4,0.3,116.7,0,175
	c-0.1,21.6-17.6,39.2-39.2,39.4c-22.1,0.2-39.7-16.8-40.2-39.9c-0.1-6-2.2-9.1-6.9-12.2c-21.4-14-42.5-28.4-63.8-42.7
	C129.5,179.3,128.1,178.5,125.8,177.2z M66.1,133.2c5.1,1.2,9.3,1.9,13.3,3.2c21.6,6.9,40.4,19.2,59.1,31.5
	c24,15.7,47.6,32.1,71.6,47.9c6.1,4.2,12.7,7.6,19.5,10.4c10.9,4.1,20.8,1,26.9-7.6c7.4-10.6,9.3-22.6,9.6-35.3
	c0.1-2.5-2-4.6-4.5-4.7c-0.4,0-0.9,0-1.3,0.2c-10.4,2.7-20.5,1.5-30.6-0.6c-26.2-5.6-50.6-16.4-75.5-25.8
	c-21.2-8.1-42.2-16.9-64.6-20.9C82,129.9,74.1,128.9,66.1,133.2L66.1,133.2z M60.8,119.2c9.4-3.6,18.5-4.7,27.4-2.6
	c14.8,3.5,29.8,6.9,44.2,11.9c25.8,8.9,51.1,19.3,76.7,28.6c12.8,4.7,26,8.6,39.8,8.6c3.8,0,7.6-1.3,11.4-2
	c-6.7-2.6-13.4-3.6-19.1-6.4c-13.5-6.5-27-13-39.6-21.1C172,117.2,143,97.4,113.7,78c-4.6-3.2-9.6-5.8-14.8-7.8
	c-14.4-5.3-26-0.2-32.2,13.7C61.7,94.9,60.5,106.6,60.8,119.2L60.8,119.2z M266.4,100c0-12.2,0.1-24.3-0.1-36.5
	c-0.1-3.8-0.3-7.8-1.6-11.2c-4.5-12-16.5-18.7-28.4-16.3c-12.1,2.4-20.4,12.8-20.5,25.7c-0.1,17,0.9,34.1-0.3,50.9
	c-0.9,11.9,2.6,18.9,13.6,22.9c9.5,3.5,18.6,8.3,28.2,11.5c6.7,2.3,9.1-0.1,9.1-7.2C266.4,126.6,266.4,113.2,266.4,100L266.4,100z
	 M60.6,195.5c0,11-0.1,22,0,33c0,4.1-0.1,8.4,0.8,12.4c3.2,13.5,16.8,21.9,30.3,18.7c11.3-2.7,19.4-12.8,19.4-24.5
	c0.2-20-0.2-40,0.1-60c0.1-5.3-0.9-8.8-6.1-10.8c-3.6-1.4-6.8-4.1-10.4-5.6c-8.6-3.6-17.2-7.4-26.1-10c-6.2-1.8-8,0.2-8,6.8
	C60.6,168.8,60.6,182.1,60.6,195.5z M110.9,59.2c-2.3-16.1-15.2-26-29.5-23.3c-14.6,2.7-23.2,17.3-20,29.4
	C76.2,50.5,92.9,51.2,110.9,59.2z M215.9,236.4c1.8,11.5,7.1,18.9,17.1,22.3c9.9,3.4,18.9,1.2,26.3-6.3c5.8-5.9,8.1-13.2,6.7-22.2
	C250.6,245.2,234,244.8,215.9,236.4z"/>
<path class="st0" d="M66.1,133.1c8-4.3,15.9-3.3,23.6-1.9c22.4,4,43.4,12.9,64.6,20.9c24.9,9.5,49.3,20.3,75.5,25.8
	c12,2.5,24,3.7,36.5-1.3c0,15-1,29.3-9.7,41.7c-6.1,8.7-16,11.7-26.9,7.6c-6.9-2.7-13.4-6.2-19.6-10.3c-24-15.8-47.6-32.1-71.6-47.9
	c-18.8-12.3-37.6-24.6-59.1-31.5C75.4,135,71.2,134.3,66.1,133.1z"/>
<path class="st0" d="M60.8,119.1c-0.3-12.6,0.9-24.3,5.9-35.2C73,70,84.6,64.9,98.8,70.1c5.2,2,10.2,4.7,14.8,7.8
	C143,97.2,172,117.1,201.5,136c12.6,8,26.2,14.6,39.6,21.1c5.8,2.8,12.4,3.8,19.1,6.4c-3.8,0.7-7.6,2-11.4,2
	c-13.8,0.1-27-3.9-39.8-8.6c-25.6-9.3-50.9-19.6-76.7-28.6c-14.4-5-29.3-8.4-44.1-11.9C79.3,114.4,70.2,115.5,60.8,119.1z"/>
<path class="st0" d="M266.4,99.9c0,13.3,0,26.6,0,40c0,7.1-2.4,9.5-9.1,7.2c-9.6-3.2-18.7-8.1-28.2-11.5c-11-4-14.5-11-13.6-22.9
	c1.2-16.9,0.3-34,0.3-50.9c0.1-12.9,8.4-23.3,20.5-25.8c11.9-2.4,23.9,4.3,28.4,16.3c1.3,3.5,1.5,7.5,1.6,11.2
	C266.5,75.6,266.4,87.8,266.4,99.9z"/>
<path class="st0" d="M60.6,195.5c0-13.3,0-26.6,0-40c0-6.6,1.8-8.7,8-6.8c8.9,2.6,17.5,6.4,26.1,10c3.6,1.5,6.7,4.3,10.4,5.6
	c5.3,2,6.2,5.5,6.1,10.8c-0.3,20,0,40-0.1,60c0,13.9-11.3,25.2-25.2,25.2c-11.7,0-21.8-8-24.5-19.4c-0.9-4-0.8-8.3-0.8-12.4
	C60.6,217.4,60.6,206.4,60.6,195.5z"/>
<path class="st0" d="M110.9,59.2c-18-8.1-34.8-8.8-49.5,6c-3.2-12,5.4-26.6,20-29.4C95.8,33.2,108.6,43.1,110.9,59.2z"/>
<path class="st0" d="M215.9,236.4c18.2,8.3,34.7,8.8,50-6.1c1.4,9-0.9,16.2-6.7,22.2c-7.4,7.5-16.4,9.7-26.3,6.3
	C223.1,255.4,217.7,247.9,215.9,236.4z"/>
</svg>
